<svg xmlns="http://www.w3.org/2000/svg" version="1.1" xmlns:xlink="http://www.w3.org/1999/xlink"
    xmlns:svgjs="http://svgjs.dev/svgjs" width="49" viewBox="0 0 1000 644">
    <g transform="matrix(1,0,0,1,-0.3325674499565139,0.2607287449392288)"><svg viewBox="0 0 383 247"
            data-background-color="#f9f9f9" preserveAspectRatio="xMidYMid meet" height="644" width="1000"
            xmlns="http://www.w3.org/2000/svg" xmlns:xlink="http://www.w3.org/1999/xlink">
            <defs></defs>
            <g id="tight-bounds" transform="matrix(1,0,0,1,0.12737333333333822,-0.09999999999999432)"><svg
                    viewBox="0 0 382.7452533333333 247.2" height="247.2" width="382.7452533333333">
                    <g><svg viewBox="0 0 382.7452533333333 247.2" height="247.2" width="382.7452533333333">
                            <g><svg viewBox="0 0 382.7452533333333 247.2" height="247.2" width="382.7452533333333">
                                    <g><svg viewBox="0 0 382.7452533333333 247.2" height="247.2"
                                            width="382.7452533333333">
                                            <g><svg viewBox="0 0 382.7452533333333 247.2" height="247.2"
                                                    width="382.7452533333333">
                                                    <rect width="382.7452533333333" height="247.2" x="0" y="0"
                                                        opacity="1" fill="#030303" data-fill-palette-color="tertiary">
                                                    </rect>
                                                    <g
                                                        transform="matrix(1,0,0,1,23.607599999999998,23.607599999999998)">
                                                        <svg width="335.53005333333334"
                                                            viewBox="-0.5 -31.5 52.849998474121094 31.5"
                                                            height="199.9848" data-palette-color="#f9f9f9">
                                                            <path
                                                                d="M28.8-0.9L28.8 0 18.55 0 18.55-0.9 21.8-0.9 18.3-10.55 7.3-10.55 3.8-0.9 7.05-0.9 7.05 0-0.5 0-0.5-0.9 1.35-0.9Q2.05-0.9 2.3-1.6L2.3-1.6 13.3-31.5 15-31.5 26-1.6Q26.25-0.9 26.95-0.9L26.95-0.9 28.8-0.9ZM17.8-11.95L12.85-25.6 7.85-11.95 17.8-11.95ZM24.55-30.6L24.55-31.5 34.05-31.5 34.05-30.6 31.55-30.6 39.7-6.2 48.05-30.6 45.55-30.6 45.55-31.5 52.35-31.5 52.35-30.6 50.5-30.6Q49.8-30.6 49.55-29.9L49.55-29.9 39.3 0 37.6 0 27.35-29.9Q27.1-30.6 26.4-30.6L26.4-30.6 24.55-30.6Z"
                                                                opacity="1" transform="matrix(1,0,0,1,0,0)"
                                                                fill="#f9f9f9" class="undefined-text-0"
                                                                data-fill-palette-color="quaternary" id="text-0"></path>
                                                        </svg></g>
                                                </svg></g>
                                        </svg></g>
                                </svg></g>
                        </svg></g>
                </svg>
                <rect width="382.7452533333333" height="247.2" fill="none" stroke="none" visibility="hidden"></rect>
            </g>
        </svg></g>
</svg>